%
M48
M72
T01C0.01772
T02C0.03150
T03C0.03200
T04C0.03600
T05C0.04000
T06C0.04724
T07C0.12598
%
T01
X316400Y152500
X436400Y222500
X303900Y330000
X153900Y345000
X441400Y62500
T02
X489825Y150748
X520140Y152913
X533132Y135000
X507935Y124567
X502424Y115118
T03
X66400Y135000
X76400Y135000
X86400Y135000
X96400Y135000
X106400Y135000
X116400Y135000
X126400Y135000
X136400Y135000
X161400Y145000
X161400Y155000
X181400Y165000
X191400Y165000
X201400Y165000
X211400Y165000
X221400Y165000
X231400Y165000
X241400Y165000
X251400Y165000
X261400Y165000
X271400Y165000
X271400Y135000
X261400Y135000
X251400Y135000
X241400Y135000
X231400Y135000
X221400Y135000
X211400Y135000
X201400Y135000
X191400Y135000
X181400Y135000
X136400Y165000
X126400Y165000
X116400Y165000
X106400Y165000
X96400Y165000
X86400Y165000
X76400Y165000
X66400Y165000
X46400Y155000
X46400Y145000
X161400Y215000
X161400Y225000
X181400Y235000
X191400Y235000
X201400Y235000
X211400Y235000
X221400Y235000
X231400Y235000
X241400Y235000
X251400Y235000
X261400Y235000
X271400Y235000
X271400Y260000
X261400Y260000
X251400Y260000
X241400Y260000
X231400Y260000
X221400Y260000
X211400Y260000
X201400Y260000
X181400Y260000
X136400Y260000
X126400Y260000
X116400Y260000
X106400Y260000
X96400Y260000
X86400Y260000
X76400Y260000
X56400Y270000
X56400Y280000
X76400Y290000
X86400Y290000
X96400Y290000
X106400Y290000
X116400Y290000
X126400Y290000
X136400Y290000
X181400Y300000
X211400Y330000
X221400Y330000
X231400Y330000
X241400Y330000
X251400Y330000
X261400Y330000
X271400Y330000
X271400Y360000
X261400Y360000
X251400Y360000
X241400Y360000
X231400Y360000
X221400Y360000
X211400Y360000
X191400Y350000
X191400Y340000
X136400Y330000
X126400Y330000
X116400Y330000
X106400Y330000
X96400Y330000
X86400Y330000
X76400Y330000
X66400Y330000
X46400Y340000
X46400Y350000
X66400Y360000
X76400Y360000
X86400Y360000
X96400Y360000
X106400Y360000
X116400Y360000
X126400Y360000
X136400Y360000
X341400Y350000
X341400Y340000
X361400Y330000
X371400Y330000
X381400Y330000
X391400Y330000
X401400Y330000
X411400Y330000
X421400Y330000
X431400Y330000
X441400Y330000
X456400Y335000
X456400Y355000
X441400Y360000
X431400Y360000
X421400Y360000
X411400Y360000
X401400Y360000
X391400Y360000
X381400Y360000
X371400Y360000
X361400Y360000
X371400Y380000
X411400Y380000
X496400Y355000
X511400Y355000
X521400Y355000
X521400Y335000
X511400Y335000
X496400Y335000
X486400Y310000
X466400Y310000
X441400Y305000
X431400Y305000
X421400Y305000
X411400Y305000
X401400Y305000
X391400Y305000
X381400Y305000
X371400Y305000
X361400Y305000
X341400Y295000
X341400Y285000
X361400Y275000
X371400Y275000
X381400Y275000
X391400Y275000
X401400Y275000
X411400Y275000
X421400Y275000
X431400Y275000
X441400Y275000
X466400Y270000
X466400Y255000
X466400Y245000
X476400Y230000
X486400Y230000
X486400Y245000
X486400Y255000
X486400Y270000
X411400Y255000
X371400Y255000
X366400Y210000
X376400Y210000
X386400Y190000
X386400Y180000
X386400Y170000
X386400Y160000
X386400Y150000
X386400Y140000
X386400Y130000
X386400Y120000
X356400Y120000
X356400Y130000
X356400Y140000
X356400Y150000
X356400Y160000
X356400Y170000
X356400Y180000
X356400Y190000
X336400Y180000
X336400Y170000
X271400Y205000
X261400Y205000
X251400Y205000
X241400Y205000
X231400Y205000
X221400Y205000
X211400Y205000
X201400Y205000
X191400Y205000
X181400Y205000
X406400Y180000
X406400Y170000
X476400Y210000
X486400Y210000
X421400Y65000
X411400Y65000
T04
X86400Y205000
X86400Y215000
X96400Y215000
X96400Y205000
X106400Y205000
X106400Y215000
X116400Y215000
X126400Y215000
X126400Y205000
X116400Y205000
X136400Y205000
X136400Y215000
T05
X326400Y120000
X326400Y140000
X356400Y90000
X376400Y90000
X411400Y95000
X431400Y95000
X456400Y95000
X476400Y95000
X471400Y140000
X451400Y140000
X426400Y140000
X406400Y140000
X451400Y175000
X451400Y195000
X405400Y205000
X405400Y225000
T06
X506715Y195315
X526400Y195315
X526400Y215000
X506715Y215000
X506715Y234685
X526400Y234685
T07
X520400Y288500
X520400Y66000
M30
