G75*
%MOIN*%
%OFA0B0*%
%FSLAX25Y25*%
%IPPOS*%
%LPD*%
%AMOC8*
5,1,8,0,0,1.08239X$1,22.5*
%
%ADD10C,0.00000*%
D10*
X0011400Y0051000D02*
X0011400Y0413000D01*
X0541400Y0413000D01*
X0541400Y0020000D01*
X0496400Y0020000D01*
X0496400Y0051000D01*
X0450900Y0051000D01*
X0450900Y0022500D01*
X0448400Y0020000D01*
X0134400Y0020000D01*
X0131900Y0022500D01*
X0131900Y0051000D01*
X0011400Y0051000D01*
X0488250Y0149370D02*
X0488250Y0152126D01*
X0488252Y0152203D01*
X0488258Y0152280D01*
X0488267Y0152357D01*
X0488280Y0152433D01*
X0488297Y0152509D01*
X0488318Y0152583D01*
X0488342Y0152657D01*
X0488370Y0152729D01*
X0488401Y0152799D01*
X0488436Y0152868D01*
X0488474Y0152936D01*
X0488515Y0153001D01*
X0488560Y0153064D01*
X0488608Y0153125D01*
X0488658Y0153184D01*
X0488711Y0153240D01*
X0488767Y0153293D01*
X0488826Y0153343D01*
X0488887Y0153391D01*
X0488950Y0153436D01*
X0489015Y0153477D01*
X0489083Y0153515D01*
X0489152Y0153550D01*
X0489222Y0153581D01*
X0489294Y0153609D01*
X0489368Y0153633D01*
X0489442Y0153654D01*
X0489518Y0153671D01*
X0489594Y0153684D01*
X0489671Y0153693D01*
X0489748Y0153699D01*
X0489825Y0153701D01*
X0489902Y0153699D01*
X0489979Y0153693D01*
X0490056Y0153684D01*
X0490132Y0153671D01*
X0490208Y0153654D01*
X0490282Y0153633D01*
X0490356Y0153609D01*
X0490428Y0153581D01*
X0490498Y0153550D01*
X0490567Y0153515D01*
X0490635Y0153477D01*
X0490700Y0153436D01*
X0490763Y0153391D01*
X0490824Y0153343D01*
X0490883Y0153293D01*
X0490939Y0153240D01*
X0490992Y0153184D01*
X0491042Y0153125D01*
X0491090Y0153064D01*
X0491135Y0153001D01*
X0491176Y0152936D01*
X0491214Y0152868D01*
X0491249Y0152799D01*
X0491280Y0152729D01*
X0491308Y0152657D01*
X0491332Y0152583D01*
X0491353Y0152509D01*
X0491370Y0152433D01*
X0491383Y0152357D01*
X0491392Y0152280D01*
X0491398Y0152203D01*
X0491400Y0152126D01*
X0491400Y0149370D01*
X0489825Y0147795D02*
X0489748Y0147797D01*
X0489671Y0147803D01*
X0489594Y0147812D01*
X0489518Y0147825D01*
X0489442Y0147842D01*
X0489368Y0147863D01*
X0489294Y0147887D01*
X0489222Y0147915D01*
X0489152Y0147946D01*
X0489083Y0147981D01*
X0489015Y0148019D01*
X0488950Y0148060D01*
X0488887Y0148105D01*
X0488826Y0148153D01*
X0488767Y0148203D01*
X0488711Y0148256D01*
X0488658Y0148312D01*
X0488608Y0148371D01*
X0488560Y0148432D01*
X0488515Y0148495D01*
X0488474Y0148560D01*
X0488436Y0148628D01*
X0488401Y0148697D01*
X0488370Y0148767D01*
X0488342Y0148839D01*
X0488318Y0148913D01*
X0488297Y0148987D01*
X0488280Y0149063D01*
X0488267Y0149139D01*
X0488258Y0149216D01*
X0488252Y0149293D01*
X0488250Y0149370D01*
X0489825Y0147795D02*
X0489902Y0147797D01*
X0489979Y0147803D01*
X0490056Y0147812D01*
X0490132Y0147825D01*
X0490208Y0147842D01*
X0490282Y0147863D01*
X0490356Y0147887D01*
X0490428Y0147915D01*
X0490498Y0147946D01*
X0490567Y0147981D01*
X0490635Y0148019D01*
X0490700Y0148060D01*
X0490763Y0148105D01*
X0490824Y0148153D01*
X0490883Y0148203D01*
X0490939Y0148256D01*
X0490992Y0148312D01*
X0491042Y0148371D01*
X0491090Y0148432D01*
X0491135Y0148495D01*
X0491176Y0148560D01*
X0491214Y0148628D01*
X0491249Y0148697D01*
X0491280Y0148767D01*
X0491308Y0148839D01*
X0491332Y0148913D01*
X0491353Y0148987D01*
X0491370Y0149063D01*
X0491383Y0149139D01*
X0491392Y0149216D01*
X0491398Y0149293D01*
X0491400Y0149370D01*
X0518762Y0151339D02*
X0521518Y0151339D01*
X0523093Y0152913D02*
X0523091Y0152990D01*
X0523085Y0153067D01*
X0523076Y0153144D01*
X0523063Y0153220D01*
X0523046Y0153296D01*
X0523025Y0153370D01*
X0523001Y0153444D01*
X0522973Y0153516D01*
X0522942Y0153586D01*
X0522907Y0153655D01*
X0522869Y0153723D01*
X0522828Y0153788D01*
X0522783Y0153851D01*
X0522735Y0153912D01*
X0522685Y0153971D01*
X0522632Y0154027D01*
X0522576Y0154080D01*
X0522517Y0154130D01*
X0522456Y0154178D01*
X0522393Y0154223D01*
X0522328Y0154264D01*
X0522260Y0154302D01*
X0522191Y0154337D01*
X0522121Y0154368D01*
X0522049Y0154396D01*
X0521975Y0154420D01*
X0521901Y0154441D01*
X0521825Y0154458D01*
X0521749Y0154471D01*
X0521672Y0154480D01*
X0521595Y0154486D01*
X0521518Y0154488D01*
X0518762Y0154488D01*
X0518685Y0154486D01*
X0518608Y0154480D01*
X0518531Y0154471D01*
X0518455Y0154458D01*
X0518379Y0154441D01*
X0518305Y0154420D01*
X0518231Y0154396D01*
X0518159Y0154368D01*
X0518089Y0154337D01*
X0518020Y0154302D01*
X0517952Y0154264D01*
X0517887Y0154223D01*
X0517824Y0154178D01*
X0517763Y0154130D01*
X0517704Y0154080D01*
X0517648Y0154027D01*
X0517595Y0153971D01*
X0517545Y0153912D01*
X0517497Y0153851D01*
X0517452Y0153788D01*
X0517411Y0153723D01*
X0517373Y0153655D01*
X0517338Y0153586D01*
X0517307Y0153516D01*
X0517279Y0153444D01*
X0517255Y0153370D01*
X0517234Y0153296D01*
X0517217Y0153220D01*
X0517204Y0153144D01*
X0517195Y0153067D01*
X0517189Y0152990D01*
X0517187Y0152913D01*
X0517189Y0152836D01*
X0517195Y0152759D01*
X0517204Y0152682D01*
X0517217Y0152606D01*
X0517234Y0152530D01*
X0517255Y0152456D01*
X0517279Y0152382D01*
X0517307Y0152310D01*
X0517338Y0152240D01*
X0517373Y0152171D01*
X0517411Y0152103D01*
X0517452Y0152038D01*
X0517497Y0151975D01*
X0517545Y0151914D01*
X0517595Y0151855D01*
X0517648Y0151799D01*
X0517704Y0151746D01*
X0517763Y0151696D01*
X0517824Y0151648D01*
X0517887Y0151603D01*
X0517952Y0151562D01*
X0518020Y0151524D01*
X0518089Y0151489D01*
X0518159Y0151458D01*
X0518231Y0151430D01*
X0518305Y0151406D01*
X0518379Y0151385D01*
X0518455Y0151368D01*
X0518531Y0151355D01*
X0518608Y0151346D01*
X0518685Y0151340D01*
X0518762Y0151338D01*
X0521518Y0151338D02*
X0521595Y0151340D01*
X0521672Y0151346D01*
X0521749Y0151355D01*
X0521825Y0151368D01*
X0521901Y0151385D01*
X0521975Y0151406D01*
X0522049Y0151430D01*
X0522121Y0151458D01*
X0522191Y0151489D01*
X0522260Y0151524D01*
X0522328Y0151562D01*
X0522393Y0151603D01*
X0522456Y0151648D01*
X0522517Y0151696D01*
X0522576Y0151746D01*
X0522632Y0151799D01*
X0522685Y0151855D01*
X0522735Y0151914D01*
X0522783Y0151975D01*
X0522828Y0152038D01*
X0522869Y0152103D01*
X0522907Y0152171D01*
X0522942Y0152240D01*
X0522973Y0152310D01*
X0523001Y0152382D01*
X0523025Y0152456D01*
X0523046Y0152530D01*
X0523063Y0152606D01*
X0523076Y0152682D01*
X0523085Y0152759D01*
X0523091Y0152836D01*
X0523093Y0152913D01*
X0531557Y0136378D02*
X0531557Y0133622D01*
X0531559Y0133545D01*
X0531565Y0133468D01*
X0531574Y0133391D01*
X0531587Y0133315D01*
X0531604Y0133239D01*
X0531625Y0133165D01*
X0531649Y0133091D01*
X0531677Y0133019D01*
X0531708Y0132949D01*
X0531743Y0132880D01*
X0531781Y0132812D01*
X0531822Y0132747D01*
X0531867Y0132684D01*
X0531915Y0132623D01*
X0531965Y0132564D01*
X0532018Y0132508D01*
X0532074Y0132455D01*
X0532133Y0132405D01*
X0532194Y0132357D01*
X0532257Y0132312D01*
X0532322Y0132271D01*
X0532390Y0132233D01*
X0532459Y0132198D01*
X0532529Y0132167D01*
X0532601Y0132139D01*
X0532675Y0132115D01*
X0532749Y0132094D01*
X0532825Y0132077D01*
X0532901Y0132064D01*
X0532978Y0132055D01*
X0533055Y0132049D01*
X0533132Y0132047D01*
X0533209Y0132049D01*
X0533286Y0132055D01*
X0533363Y0132064D01*
X0533439Y0132077D01*
X0533515Y0132094D01*
X0533589Y0132115D01*
X0533663Y0132139D01*
X0533735Y0132167D01*
X0533805Y0132198D01*
X0533874Y0132233D01*
X0533942Y0132271D01*
X0534007Y0132312D01*
X0534070Y0132357D01*
X0534131Y0132405D01*
X0534190Y0132455D01*
X0534246Y0132508D01*
X0534299Y0132564D01*
X0534349Y0132623D01*
X0534397Y0132684D01*
X0534442Y0132747D01*
X0534483Y0132812D01*
X0534521Y0132880D01*
X0534556Y0132949D01*
X0534587Y0133019D01*
X0534615Y0133091D01*
X0534639Y0133165D01*
X0534660Y0133239D01*
X0534677Y0133315D01*
X0534690Y0133391D01*
X0534699Y0133468D01*
X0534705Y0133545D01*
X0534707Y0133622D01*
X0534707Y0136378D01*
X0533132Y0137953D02*
X0533055Y0137951D01*
X0532978Y0137945D01*
X0532901Y0137936D01*
X0532825Y0137923D01*
X0532749Y0137906D01*
X0532675Y0137885D01*
X0532601Y0137861D01*
X0532529Y0137833D01*
X0532459Y0137802D01*
X0532390Y0137767D01*
X0532322Y0137729D01*
X0532257Y0137688D01*
X0532194Y0137643D01*
X0532133Y0137595D01*
X0532074Y0137545D01*
X0532018Y0137492D01*
X0531965Y0137436D01*
X0531915Y0137377D01*
X0531867Y0137316D01*
X0531822Y0137253D01*
X0531781Y0137188D01*
X0531743Y0137120D01*
X0531708Y0137051D01*
X0531677Y0136981D01*
X0531649Y0136909D01*
X0531625Y0136835D01*
X0531604Y0136761D01*
X0531587Y0136685D01*
X0531574Y0136609D01*
X0531565Y0136532D01*
X0531559Y0136455D01*
X0531557Y0136378D01*
X0533132Y0137953D02*
X0533209Y0137951D01*
X0533286Y0137945D01*
X0533363Y0137936D01*
X0533439Y0137923D01*
X0533515Y0137906D01*
X0533589Y0137885D01*
X0533663Y0137861D01*
X0533735Y0137833D01*
X0533805Y0137802D01*
X0533874Y0137767D01*
X0533942Y0137729D01*
X0534007Y0137688D01*
X0534070Y0137643D01*
X0534131Y0137595D01*
X0534190Y0137545D01*
X0534246Y0137492D01*
X0534299Y0137436D01*
X0534349Y0137377D01*
X0534397Y0137316D01*
X0534442Y0137253D01*
X0534483Y0137188D01*
X0534521Y0137120D01*
X0534556Y0137051D01*
X0534587Y0136981D01*
X0534615Y0136909D01*
X0534639Y0136835D01*
X0534660Y0136761D01*
X0534677Y0136685D01*
X0534690Y0136609D01*
X0534699Y0136532D01*
X0534705Y0136455D01*
X0534707Y0136378D01*
X0509313Y0126142D02*
X0506557Y0126142D01*
X0506480Y0126140D01*
X0506403Y0126134D01*
X0506326Y0126125D01*
X0506250Y0126112D01*
X0506174Y0126095D01*
X0506100Y0126074D01*
X0506026Y0126050D01*
X0505954Y0126022D01*
X0505884Y0125991D01*
X0505815Y0125956D01*
X0505747Y0125918D01*
X0505682Y0125877D01*
X0505619Y0125832D01*
X0505558Y0125784D01*
X0505499Y0125734D01*
X0505443Y0125681D01*
X0505390Y0125625D01*
X0505340Y0125566D01*
X0505292Y0125505D01*
X0505247Y0125442D01*
X0505206Y0125377D01*
X0505168Y0125309D01*
X0505133Y0125240D01*
X0505102Y0125170D01*
X0505074Y0125098D01*
X0505050Y0125024D01*
X0505029Y0124950D01*
X0505012Y0124874D01*
X0504999Y0124798D01*
X0504990Y0124721D01*
X0504984Y0124644D01*
X0504982Y0124567D01*
X0504984Y0124490D01*
X0504990Y0124413D01*
X0504999Y0124336D01*
X0505012Y0124260D01*
X0505029Y0124184D01*
X0505050Y0124110D01*
X0505074Y0124036D01*
X0505102Y0123964D01*
X0505133Y0123894D01*
X0505168Y0123825D01*
X0505206Y0123757D01*
X0505247Y0123692D01*
X0505292Y0123629D01*
X0505340Y0123568D01*
X0505390Y0123509D01*
X0505443Y0123453D01*
X0505499Y0123400D01*
X0505558Y0123350D01*
X0505619Y0123302D01*
X0505682Y0123257D01*
X0505747Y0123216D01*
X0505815Y0123178D01*
X0505884Y0123143D01*
X0505954Y0123112D01*
X0506026Y0123084D01*
X0506100Y0123060D01*
X0506174Y0123039D01*
X0506250Y0123022D01*
X0506326Y0123009D01*
X0506403Y0123000D01*
X0506480Y0122994D01*
X0506557Y0122992D01*
X0509313Y0122992D01*
X0510888Y0124567D02*
X0510886Y0124644D01*
X0510880Y0124721D01*
X0510871Y0124798D01*
X0510858Y0124874D01*
X0510841Y0124950D01*
X0510820Y0125024D01*
X0510796Y0125098D01*
X0510768Y0125170D01*
X0510737Y0125240D01*
X0510702Y0125309D01*
X0510664Y0125377D01*
X0510623Y0125442D01*
X0510578Y0125505D01*
X0510530Y0125566D01*
X0510480Y0125625D01*
X0510427Y0125681D01*
X0510371Y0125734D01*
X0510312Y0125784D01*
X0510251Y0125832D01*
X0510188Y0125877D01*
X0510123Y0125918D01*
X0510055Y0125956D01*
X0509986Y0125991D01*
X0509916Y0126022D01*
X0509844Y0126050D01*
X0509770Y0126074D01*
X0509696Y0126095D01*
X0509620Y0126112D01*
X0509544Y0126125D01*
X0509467Y0126134D01*
X0509390Y0126140D01*
X0509313Y0126142D01*
X0510888Y0124567D02*
X0510886Y0124490D01*
X0510880Y0124413D01*
X0510871Y0124336D01*
X0510858Y0124260D01*
X0510841Y0124184D01*
X0510820Y0124110D01*
X0510796Y0124036D01*
X0510768Y0123964D01*
X0510737Y0123894D01*
X0510702Y0123825D01*
X0510664Y0123757D01*
X0510623Y0123692D01*
X0510578Y0123629D01*
X0510530Y0123568D01*
X0510480Y0123509D01*
X0510427Y0123453D01*
X0510371Y0123400D01*
X0510312Y0123350D01*
X0510251Y0123302D01*
X0510188Y0123257D01*
X0510123Y0123216D01*
X0510055Y0123178D01*
X0509986Y0123143D01*
X0509916Y0123112D01*
X0509844Y0123084D01*
X0509770Y0123060D01*
X0509696Y0123039D01*
X0509620Y0123022D01*
X0509544Y0123009D01*
X0509467Y0123000D01*
X0509390Y0122994D01*
X0509313Y0122992D01*
X0503802Y0116693D02*
X0501046Y0116693D01*
X0500969Y0116691D01*
X0500892Y0116685D01*
X0500815Y0116676D01*
X0500739Y0116663D01*
X0500663Y0116646D01*
X0500589Y0116625D01*
X0500515Y0116601D01*
X0500443Y0116573D01*
X0500373Y0116542D01*
X0500304Y0116507D01*
X0500236Y0116469D01*
X0500171Y0116428D01*
X0500108Y0116383D01*
X0500047Y0116335D01*
X0499988Y0116285D01*
X0499932Y0116232D01*
X0499879Y0116176D01*
X0499829Y0116117D01*
X0499781Y0116056D01*
X0499736Y0115993D01*
X0499695Y0115928D01*
X0499657Y0115860D01*
X0499622Y0115791D01*
X0499591Y0115721D01*
X0499563Y0115649D01*
X0499539Y0115575D01*
X0499518Y0115501D01*
X0499501Y0115425D01*
X0499488Y0115349D01*
X0499479Y0115272D01*
X0499473Y0115195D01*
X0499471Y0115118D01*
X0499473Y0115041D01*
X0499479Y0114964D01*
X0499488Y0114887D01*
X0499501Y0114811D01*
X0499518Y0114735D01*
X0499539Y0114661D01*
X0499563Y0114587D01*
X0499591Y0114515D01*
X0499622Y0114445D01*
X0499657Y0114376D01*
X0499695Y0114308D01*
X0499736Y0114243D01*
X0499781Y0114180D01*
X0499829Y0114119D01*
X0499879Y0114060D01*
X0499932Y0114004D01*
X0499988Y0113951D01*
X0500047Y0113901D01*
X0500108Y0113853D01*
X0500171Y0113808D01*
X0500236Y0113767D01*
X0500304Y0113729D01*
X0500373Y0113694D01*
X0500443Y0113663D01*
X0500515Y0113635D01*
X0500589Y0113611D01*
X0500663Y0113590D01*
X0500739Y0113573D01*
X0500815Y0113560D01*
X0500892Y0113551D01*
X0500969Y0113545D01*
X0501046Y0113543D01*
X0503802Y0113543D01*
X0505377Y0115118D02*
X0505375Y0115195D01*
X0505369Y0115272D01*
X0505360Y0115349D01*
X0505347Y0115425D01*
X0505330Y0115501D01*
X0505309Y0115575D01*
X0505285Y0115649D01*
X0505257Y0115721D01*
X0505226Y0115791D01*
X0505191Y0115860D01*
X0505153Y0115928D01*
X0505112Y0115993D01*
X0505067Y0116056D01*
X0505019Y0116117D01*
X0504969Y0116176D01*
X0504916Y0116232D01*
X0504860Y0116285D01*
X0504801Y0116335D01*
X0504740Y0116383D01*
X0504677Y0116428D01*
X0504612Y0116469D01*
X0504544Y0116507D01*
X0504475Y0116542D01*
X0504405Y0116573D01*
X0504333Y0116601D01*
X0504259Y0116625D01*
X0504185Y0116646D01*
X0504109Y0116663D01*
X0504033Y0116676D01*
X0503956Y0116685D01*
X0503879Y0116691D01*
X0503802Y0116693D01*
X0505377Y0115118D02*
X0505375Y0115041D01*
X0505369Y0114964D01*
X0505360Y0114887D01*
X0505347Y0114811D01*
X0505330Y0114735D01*
X0505309Y0114661D01*
X0505285Y0114587D01*
X0505257Y0114515D01*
X0505226Y0114445D01*
X0505191Y0114376D01*
X0505153Y0114308D01*
X0505112Y0114243D01*
X0505067Y0114180D01*
X0505019Y0114119D01*
X0504969Y0114060D01*
X0504916Y0114004D01*
X0504860Y0113951D01*
X0504801Y0113901D01*
X0504740Y0113853D01*
X0504677Y0113808D01*
X0504612Y0113767D01*
X0504544Y0113729D01*
X0504475Y0113694D01*
X0504405Y0113663D01*
X0504333Y0113635D01*
X0504259Y0113611D01*
X0504185Y0113590D01*
X0504109Y0113573D01*
X0504033Y0113560D01*
X0503956Y0113551D01*
X0503879Y0113545D01*
X0503802Y0113543D01*
M02*
