G75*
%MOIN*%
%OFA0B0*%
%FSLAX25Y25*%
%IPPOS*%
%LPD*%
%AMOC8*
5,1,8,0,0,1.08239X$1,22.5*
%
%ADD10C,0.00000*%
%ADD11R,3.19000X0.31000*%
%ADD12OC8,0.06000*%
%ADD13C,0.10800*%
%ADD14OC8,0.10800*%
%ADD15C,0.06000*%
%ADD16OC8,0.06400*%
%ADD17C,0.09400*%
%ADD18R,0.06800X0.25300*%
%ADD19C,0.05950*%
%ADD20C,0.23800*%
%ADD21C,0.05918*%
D10*
X0011400Y0051000D02*
X0011400Y0413000D01*
X0541400Y0413000D01*
X0541400Y0020000D01*
X0496400Y0020000D01*
X0496400Y0051000D01*
X0450900Y0051000D01*
X0450900Y0022500D01*
X0448400Y0020000D01*
X0134400Y0020000D01*
X0131900Y0022500D01*
X0131900Y0051000D01*
X0011400Y0051000D01*
D11*
X0291400Y0035500D03*
D12*
X0411400Y0065000D03*
X0421400Y0065000D03*
X0406400Y0170000D03*
X0406400Y0180000D03*
X0376400Y0210000D03*
X0366400Y0210000D03*
X0336400Y0180000D03*
X0336400Y0170000D03*
X0371400Y0255000D03*
X0411400Y0255000D03*
X0466400Y0255000D03*
X0466400Y0245000D03*
X0476400Y0230000D03*
X0486400Y0230000D03*
X0486400Y0245000D03*
X0486400Y0255000D03*
X0486400Y0270000D03*
X0466400Y0270000D03*
X0466400Y0310000D03*
X0486400Y0310000D03*
X0496400Y0335000D03*
X0511400Y0335000D03*
X0521400Y0335000D03*
X0521400Y0355000D03*
X0511400Y0355000D03*
X0496400Y0355000D03*
X0456400Y0355000D03*
X0456400Y0335000D03*
X0411400Y0380000D03*
X0371400Y0380000D03*
X0341400Y0350000D03*
X0341400Y0340000D03*
X0341400Y0295000D03*
X0341400Y0285000D03*
X0476400Y0210000D03*
X0486400Y0210000D03*
X0191400Y0340000D03*
X0191400Y0350000D03*
X0181400Y0300000D03*
X0181400Y0260000D03*
X0161400Y0225000D03*
X0161400Y0215000D03*
X0161400Y0155000D03*
X0161400Y0145000D03*
X0046400Y0145000D03*
X0046400Y0155000D03*
X0056400Y0270000D03*
X0056400Y0280000D03*
X0046400Y0340000D03*
X0046400Y0350000D03*
D13*
X0326400Y0140000D03*
X0356400Y0090000D03*
X0411400Y0095000D03*
X0456400Y0095000D03*
X0451400Y0140000D03*
X0406400Y0140000D03*
X0451400Y0195000D03*
X0405400Y0205000D03*
D14*
X0405400Y0225000D03*
X0451400Y0175000D03*
X0471400Y0140000D03*
X0426400Y0140000D03*
X0431400Y0095000D03*
X0476400Y0095000D03*
X0376400Y0090000D03*
X0326400Y0120000D03*
D15*
X0353800Y0120000D02*
X0359000Y0120000D01*
X0359000Y0130000D02*
X0353800Y0130000D01*
X0353800Y0140000D02*
X0359000Y0140000D01*
X0359000Y0150000D02*
X0353800Y0150000D01*
X0353800Y0160000D02*
X0359000Y0160000D01*
X0359000Y0170000D02*
X0353800Y0170000D01*
X0353800Y0180000D02*
X0359000Y0180000D01*
X0359000Y0190000D02*
X0353800Y0190000D01*
X0383800Y0190000D02*
X0389000Y0190000D01*
X0389000Y0180000D02*
X0383800Y0180000D01*
X0383800Y0170000D02*
X0389000Y0170000D01*
X0389000Y0160000D02*
X0383800Y0160000D01*
X0383800Y0150000D02*
X0389000Y0150000D01*
X0389000Y0140000D02*
X0383800Y0140000D01*
X0383800Y0130000D02*
X0389000Y0130000D01*
X0389000Y0120000D02*
X0383800Y0120000D01*
X0271400Y0132400D02*
X0271400Y0137600D01*
X0261400Y0137600D02*
X0261400Y0132400D01*
X0251400Y0132400D02*
X0251400Y0137600D01*
X0241400Y0137600D02*
X0241400Y0132400D01*
X0231400Y0132400D02*
X0231400Y0137600D01*
X0221400Y0137600D02*
X0221400Y0132400D01*
X0211400Y0132400D02*
X0211400Y0137600D01*
X0201400Y0137600D02*
X0201400Y0132400D01*
X0191400Y0132400D02*
X0191400Y0137600D01*
X0181400Y0137600D02*
X0181400Y0132400D01*
X0181400Y0162400D02*
X0181400Y0167600D01*
X0191400Y0167600D02*
X0191400Y0162400D01*
X0201400Y0162400D02*
X0201400Y0167600D01*
X0211400Y0167600D02*
X0211400Y0162400D01*
X0221400Y0162400D02*
X0221400Y0167600D01*
X0231400Y0167600D02*
X0231400Y0162400D01*
X0241400Y0162400D02*
X0241400Y0167600D01*
X0251400Y0167600D02*
X0251400Y0162400D01*
X0261400Y0162400D02*
X0261400Y0167600D01*
X0271400Y0167600D02*
X0271400Y0162400D01*
X0271400Y0202400D02*
X0271400Y0207600D01*
X0261400Y0207600D02*
X0261400Y0202400D01*
X0251400Y0202400D02*
X0251400Y0207600D01*
X0241400Y0207600D02*
X0241400Y0202400D01*
X0231400Y0202400D02*
X0231400Y0207600D01*
X0221400Y0207600D02*
X0221400Y0202400D01*
X0211400Y0202400D02*
X0211400Y0207600D01*
X0201400Y0207600D02*
X0201400Y0202400D01*
X0191400Y0202400D02*
X0191400Y0207600D01*
X0181400Y0207600D02*
X0181400Y0202400D01*
X0181400Y0232400D02*
X0181400Y0237600D01*
X0191400Y0237600D02*
X0191400Y0232400D01*
X0201400Y0232400D02*
X0201400Y0237600D01*
X0211400Y0237600D02*
X0211400Y0232400D01*
X0221400Y0232400D02*
X0221400Y0237600D01*
X0231400Y0237600D02*
X0231400Y0232400D01*
X0241400Y0232400D02*
X0241400Y0237600D01*
X0251400Y0237600D02*
X0251400Y0232400D01*
X0261400Y0232400D02*
X0261400Y0237600D01*
X0271400Y0237600D02*
X0271400Y0232400D01*
X0271400Y0257400D02*
X0271400Y0262600D01*
X0261400Y0262600D02*
X0261400Y0257400D01*
X0251400Y0257400D02*
X0251400Y0262600D01*
X0241400Y0262600D02*
X0241400Y0257400D01*
X0231400Y0257400D02*
X0231400Y0262600D01*
X0221400Y0262600D02*
X0221400Y0257400D01*
X0211400Y0257400D02*
X0211400Y0262600D01*
X0201400Y0262600D02*
X0201400Y0257400D01*
X0136400Y0257400D02*
X0136400Y0262600D01*
X0126400Y0262600D02*
X0126400Y0257400D01*
X0116400Y0257400D02*
X0116400Y0262600D01*
X0106400Y0262600D02*
X0106400Y0257400D01*
X0096400Y0257400D02*
X0096400Y0262600D01*
X0086400Y0262600D02*
X0086400Y0257400D01*
X0076400Y0257400D02*
X0076400Y0262600D01*
X0076400Y0287400D02*
X0076400Y0292600D01*
X0086400Y0292600D02*
X0086400Y0287400D01*
X0096400Y0287400D02*
X0096400Y0292600D01*
X0106400Y0292600D02*
X0106400Y0287400D01*
X0116400Y0287400D02*
X0116400Y0292600D01*
X0126400Y0292600D02*
X0126400Y0287400D01*
X0136400Y0287400D02*
X0136400Y0292600D01*
X0136400Y0327400D02*
X0136400Y0332600D01*
X0126400Y0332600D02*
X0126400Y0327400D01*
X0116400Y0327400D02*
X0116400Y0332600D01*
X0106400Y0332600D02*
X0106400Y0327400D01*
X0096400Y0327400D02*
X0096400Y0332600D01*
X0086400Y0332600D02*
X0086400Y0327400D01*
X0076400Y0327400D02*
X0076400Y0332600D01*
X0066400Y0332600D02*
X0066400Y0327400D01*
X0066400Y0357400D02*
X0066400Y0362600D01*
X0076400Y0362600D02*
X0076400Y0357400D01*
X0086400Y0357400D02*
X0086400Y0362600D01*
X0096400Y0362600D02*
X0096400Y0357400D01*
X0106400Y0357400D02*
X0106400Y0362600D01*
X0116400Y0362600D02*
X0116400Y0357400D01*
X0126400Y0357400D02*
X0126400Y0362600D01*
X0136400Y0362600D02*
X0136400Y0357400D01*
X0211400Y0357400D02*
X0211400Y0362600D01*
X0221400Y0362600D02*
X0221400Y0357400D01*
X0231400Y0357400D02*
X0231400Y0362600D01*
X0241400Y0362600D02*
X0241400Y0357400D01*
X0251400Y0357400D02*
X0251400Y0362600D01*
X0261400Y0362600D02*
X0261400Y0357400D01*
X0271400Y0357400D02*
X0271400Y0362600D01*
X0271400Y0332600D02*
X0271400Y0327400D01*
X0261400Y0327400D02*
X0261400Y0332600D01*
X0251400Y0332600D02*
X0251400Y0327400D01*
X0241400Y0327400D02*
X0241400Y0332600D01*
X0231400Y0332600D02*
X0231400Y0327400D01*
X0221400Y0327400D02*
X0221400Y0332600D01*
X0211400Y0332600D02*
X0211400Y0327400D01*
X0361400Y0327400D02*
X0361400Y0332600D01*
X0371400Y0332600D02*
X0371400Y0327400D01*
X0381400Y0327400D02*
X0381400Y0332600D01*
X0391400Y0332600D02*
X0391400Y0327400D01*
X0401400Y0327400D02*
X0401400Y0332600D01*
X0411400Y0332600D02*
X0411400Y0327400D01*
X0421400Y0327400D02*
X0421400Y0332600D01*
X0431400Y0332600D02*
X0431400Y0327400D01*
X0441400Y0327400D02*
X0441400Y0332600D01*
X0441400Y0357400D02*
X0441400Y0362600D01*
X0431400Y0362600D02*
X0431400Y0357400D01*
X0421400Y0357400D02*
X0421400Y0362600D01*
X0411400Y0362600D02*
X0411400Y0357400D01*
X0401400Y0357400D02*
X0401400Y0362600D01*
X0391400Y0362600D02*
X0391400Y0357400D01*
X0381400Y0357400D02*
X0381400Y0362600D01*
X0371400Y0362600D02*
X0371400Y0357400D01*
X0361400Y0357400D02*
X0361400Y0362600D01*
X0361400Y0307600D02*
X0361400Y0302400D01*
X0371400Y0302400D02*
X0371400Y0307600D01*
X0381400Y0307600D02*
X0381400Y0302400D01*
X0391400Y0302400D02*
X0391400Y0307600D01*
X0401400Y0307600D02*
X0401400Y0302400D01*
X0411400Y0302400D02*
X0411400Y0307600D01*
X0421400Y0307600D02*
X0421400Y0302400D01*
X0431400Y0302400D02*
X0431400Y0307600D01*
X0441400Y0307600D02*
X0441400Y0302400D01*
X0441400Y0277600D02*
X0441400Y0272400D01*
X0431400Y0272400D02*
X0431400Y0277600D01*
X0421400Y0277600D02*
X0421400Y0272400D01*
X0411400Y0272400D02*
X0411400Y0277600D01*
X0401400Y0277600D02*
X0401400Y0272400D01*
X0391400Y0272400D02*
X0391400Y0277600D01*
X0381400Y0277600D02*
X0381400Y0272400D01*
X0371400Y0272400D02*
X0371400Y0277600D01*
X0361400Y0277600D02*
X0361400Y0272400D01*
X0136400Y0167600D02*
X0136400Y0162400D01*
X0126400Y0162400D02*
X0126400Y0167600D01*
X0116400Y0167600D02*
X0116400Y0162400D01*
X0106400Y0162400D02*
X0106400Y0167600D01*
X0096400Y0167600D02*
X0096400Y0162400D01*
X0086400Y0162400D02*
X0086400Y0167600D01*
X0076400Y0167600D02*
X0076400Y0162400D01*
X0066400Y0162400D02*
X0066400Y0167600D01*
X0066400Y0137600D02*
X0066400Y0132400D01*
X0076400Y0132400D02*
X0076400Y0137600D01*
X0086400Y0137600D02*
X0086400Y0132400D01*
X0096400Y0132400D02*
X0096400Y0137600D01*
X0106400Y0137600D02*
X0106400Y0132400D01*
X0116400Y0132400D02*
X0116400Y0137600D01*
X0126400Y0137600D02*
X0126400Y0132400D01*
X0136400Y0132400D02*
X0136400Y0137600D01*
D16*
X0136400Y0205000D03*
X0136400Y0215000D03*
X0126400Y0215000D03*
X0116400Y0215000D03*
X0116400Y0205000D03*
X0126400Y0205000D03*
X0106400Y0205000D03*
X0106400Y0215000D03*
X0096400Y0215000D03*
X0096400Y0205000D03*
X0086400Y0205000D03*
X0086400Y0215000D03*
D17*
X0506715Y0215000D03*
X0526400Y0215000D03*
X0526400Y0195315D03*
X0506715Y0195315D03*
X0506715Y0234685D03*
X0526400Y0234685D03*
D18*
X0441400Y0037000D03*
X0431400Y0037000D03*
X0421400Y0037000D03*
X0411400Y0037000D03*
X0401400Y0037000D03*
X0391400Y0037000D03*
X0381400Y0037000D03*
X0371400Y0037000D03*
X0361400Y0037000D03*
X0351400Y0037000D03*
X0341400Y0037000D03*
X0331400Y0037000D03*
X0321400Y0037000D03*
X0311400Y0037000D03*
X0301400Y0037000D03*
X0291400Y0037000D03*
X0281400Y0037000D03*
X0271400Y0037000D03*
X0261400Y0037000D03*
X0251400Y0037000D03*
X0241400Y0037000D03*
X0231400Y0037000D03*
X0221400Y0037000D03*
X0211400Y0037000D03*
X0201400Y0037000D03*
X0191400Y0037000D03*
X0181400Y0037000D03*
X0171400Y0037000D03*
X0161400Y0037000D03*
X0151400Y0037000D03*
X0141400Y0037000D03*
D19*
X0489825Y0148173D02*
X0489825Y0153323D01*
X0517565Y0152913D02*
X0522715Y0152913D01*
X0533132Y0137575D02*
X0533132Y0132425D01*
X0510510Y0124567D02*
X0505361Y0124567D01*
X0504998Y0115118D02*
X0499849Y0115118D01*
D20*
X0520400Y0066000D03*
X0520400Y0288500D03*
D21*
X0436400Y0222500D03*
X0316400Y0152500D03*
X0441400Y0062500D03*
X0303900Y0330000D03*
X0153900Y0345000D03*
M02*
